# xmcd
#
# Track frame offsets:
# 150
# 16031
# 36621
# 53921
# 70683
# 88317
# 106352
# 126570
# 143962
# 161687
# 176876
# 192540
# 209038
# 223031
# 243956
# 257297
# 276464
# 294773
# 311510
# 329315
#
# Disc length: 4635 seconds
#
#
# Revision: 1
# Processed by: cddbd v1.5.1PL0 Copyright (c) Steve Scherf et al.
# Submitted via: FreeRIP 2.90 
#
DISCID=3d121914
DTITLE=Various Artist - Hot and Beautiful_CD2
DYEAR=2004
DGENRE=R&B
TTITLE0=3rd Wish - Obsesiòn
TTITLE1=Black Eyed Peas - Where Is The Love ?
TTITLE2=Alicia Keys - If I Ain´t Got You
TTITLE3=Enrique Iglesias feat. Kelis - Not In Love
TTITLE4=Nina Sky - Move Ya Body
TTITLE5=Sugababes - Too Lost In You
TTITLE6=Destiny´s Child - Say My Name
TTITLE7=Eve feat. Gwen Stefani - Let Me Blow Ya Mind
TTITLE8=Macy Gray - I Try
TTITLE9=Christina Aguilera - What A Girl Wants
TTITLE10=Ashanti - Foolish
TTITLE11=Ms. Dynamite - Dy-Na-Mi-Tee
TTITLE12=Lumidee - Never Leave You (Uh, Ooh, Uh Oooh !)
TTITLE13=LL Cool J - Ain´t Nobody
TTITLE14=City High - What Would You Do ?
TTITLE15=Dr. Dre feat. Blackstreet - No Diggity
TTITLE16=Nate Dogg feat. Warren G - Regulate
TTITLE17=K-Ci and Jojo - All My Life
TTITLE18=Nelly feat. Kelly Rowland - Dilemma
TTITLE19=J-Kown - Tipsy
EXTD=YEAR: 2004
EXTT0=
EXTT1=
EXTT2=
EXTT3=
EXTT4=
EXTT5=
EXTT6=
EXTT7=
EXTT8=
EXTT9=
EXTT10=
EXTT11=
EXTT12=
EXTT13=
EXTT14=
EXTT15=
EXTT16=
EXTT17=
EXTT18=
EXTT19=
PLAYORDER=
